# xmcd
#
# Track frame offsets:
#	150
#	18226
#	41392
#	60095
#	80894
#	102510
#	123766
#	141233
#	161993
#
# Disc length: 2404 seconds
#
# Revision: 0
# Processed by: cddbd v1.5.2PL0 Copyright (c) Steve Scherf et al.
# Submitted via: EZCDAudioConverter 3.1.7.1
#
DISCID=70096209
DTITLE=Big Boy Bloater and The Limits - Luxury Hobo
DYEAR=2016
DGENRE=Blues
TTITLE0=Devils Not Angels
TTITLE1=It Came Out Of The Swamp
TTITLE2=I Love You (But I Can't Stand Your Friends)
TTITLE3=The Devils Tail
TTITLE4=I Got The Feeling Someone's Watching Me
TTITLE5=Luxury Hobo Blues
TTITLE6=Robot Girlfriend
TTITLE7=All Things Considered
TTITLE8=Not Cool Man
EXTD=
EXTT0=
EXTT1=
EXTT2=
EXTT3=
EXTT4=
EXTT5=
EXTT6=
EXTT7=
EXTT8=
PLAYORDER=
